<?xml version="1.0" encoding="utf-8"?>
<!-- Generator: Adobe Illustrator 16.0.0, SVG Export Plug-In . SVG Version: 6.00 Build 0)  -->
<!DOCTYPE svg PUBLIC "-//W3C//DTD SVG 1.1//EN" "http://www.w3.org/Graphics/SVG/1.1/DTD/svg11.dtd">
<svg version="1.1" id="Capa_1" xmlns="http://www.w3.org/2000/svg" xmlns:xlink="http://www.w3.org/1999/xlink" x="0px" y="0px"
	 width="115.865px" height="115.867px" viewBox="0 0 115.865 115.867" enable-background="new 0 0 115.865 115.867"
	 xml:space="preserve">
<path d="M85.434,26.757c-2.361-2.977-5.125-5.559-8.129-7.714c1.16,7.046-2.844,13.488-8.081,15.904
	c-4.945,2.281-11.933,1.026-13.543-6.43c-0.966-4.473,0.994-10.977-1.875-14.334c-1.839-0.236-3.679-0.563-5.54-0.716
	c2.447,2.414,3.219,7.679-0.284,10.163c-3.403,2.412-7.346,6.093-8.068,11.344c-0.713,5.176,3.419,8.359,6.64,10.143
	c7.898,4.373,17.424,3.535,25.877,3.297c5.493-0.154,15.679-0.679,15.396-10.519C87.721,34.208,86.852,30.332,85.434,26.757z"/>
<path d="M91.084,65.15c1.681-4.631,2.605-9.471,2.582-14.206c-5.146,6.109-14.435,7.522-22.399,7.521
	c-12.697-0.003-28.514,0.841-37.627-10.193c-6.342-7.679-3.242-16.759,2.64-23.154c-11.716,6.559-17.674,22.581-17.382,36.13
	c0.49,22.689,22.782,34.119,42.558,31.163c1.246-0.187,2.474-0.467,3.684-0.817C70.151,80.027,80.099,71.449,91.084,65.15z
	 M31.51,69.434c-6.24,0-6.24-10,0-10S37.75,69.434,31.51,69.434z M51.345,71.934c-6.24,0-6.24-10,0-10S57.585,71.934,51.345,71.934z
	"/>
</svg>
